#!OML:ASF F:\VICON\USERDATA\INSTALL\rory3\rory3.ASF
:FULLY-SPECIFIED
:DEGREES
5190
root -2.86601 17.478 -0.0243588 13.7245 -19.8199 4.26148
lowerback 12.2449 -8.79349 -9.19401
upperback 3.73721 -12.6632 7.73057
thorax 1.12055 -6.81032 14.6721
lowerneck -25.6878 6.64856 -4.08308
upperneck 22.1104 9.34602 5.28756
head 10.8782 4.57848 4.10219
rclavicle -1.86858e-014 4.33351e-014
rhumerus -51.2962 3.12283 -55.8117
rradius 67.6664
rwrist 31.7152
rhand -29.97 7.7335
rfingers 7.12502
rthumb -3.28849 -22.2209
lclavicle -1.86858e-014 4.33351e-014
lhumerus 23.4259 23.7823 34.1605
lradius 29.9213
lwrist -2.77173
lhand -27.5395 20.173
lfingers 7.12502
lthumb -0.941127 50.1507
rfemur -37.4538 5.93291 11.8211
rtibia 45.1083
rfoot -17.4931 0.185998
rtoes 4.20964
lfemur -22.216 5.27524 -16.9599
ltibia 30.1109
lfoot -16.2928 16.0373
ltoes -18.6893
5191
root -2.8648 17.4739 -0.0307894 14.0771 -20.3453 4.13629
lowerback 12.5014 -8.75086 -9.18208
upperback 3.74177 -12.6191 7.85731
thorax 1.00456 -6.78708 14.866
lowerneck -25.7434 6.68761 -3.84766
upperneck 22.257 9.48498 4.66263
head 10.986 4.56964 3.87365
rclavicle -4.81059e-014 -5.36719e-014
rhumerus -51.8479 2.87389 -55.8869
rradius 67.2016
rwrist 31.5595
rhand -30.1573 8.19023
rfingers 7.12502
rthumb -3.46938 -21.7613
lclavicle -4.81059e-014 -5.36719e-014
lhumerus 24.2768 25.2341 34.4216
lradius 28.8408
lwrist -3.81294
lhand -27.0512 19.6699
lfingers 7.12502
lthumb -0.469529 49.6491
rfemur -37.9577 6.14393 11.8735
rtibia 45.093
rfoot -17.2616 0.292737
rtoes 3.96124
lfemur -22.6276 5.67608 -16.9499
ltibia 30.4227
lfoot -16.5145 16.1166
ltoes -18.7988
5192
root -2.86076 17.4702 -0.0411793 14.5864 -20.7547 3.75397
lowerback 12.4744 -8.7997 -8.71224
upperback 3.93153 -12.625 7.87809
thorax 1.12435 -6.79838 14.5969
lowerneck -25.865 6.776 -3.57252
upperneck 22.2114 9.60071 4.31431
head 11.0214 4.59769 3.72796
rclavicle -8.54774e-015 -2.5842e-014
rhumerus -52.2276 2.35282 -56.2898
rradius 66.7455
rwrist 31.4368
rhand -30.4917 8.5208
rfingers 7.12502
rthumb -3.79227 -21.4252
lclavicle -8.54774e-015 -2.5842e-014
lhumerus 25.366 26.8169 34.4295
lradius 27.8024
lwrist -5.05591
lhand -26.2758 19.5424
lfingers 7.12502
lthumb 0.279395 49.522
rfemur -38.5119 6.40452 12.1666
rtibia 45.0417
rfoot -17.0219 0.338845
rtoes 4.09622
lfemur -23.201 6.05376 -16.6603
ltibia 30.7953
lfoot -16.6674 16.1977
ltoes -18.7099
5193
root -2.85235 17.4675 -0.0517588 15.2483 -21.0419 3.21602
lowerback 12.3606 -8.85986 -7.97181
upperback 4.01609 -12.6076 7.98243
thorax 1.1268 -6.77829 14.2667
lowerneck -25.7462 6.77453 -3.70031
upperneck 22.0501 9.65541 4.2655
head 10.9329 4.61084 3.72409
rclavicle -5.02925e-014 9.14409e-015
rhumerus -52.6303 1.90575 -56.632
rradius 66.2825
rwrist 31.3585
rhand -30.6011 8.32302
rfingers 7.12502
rthumb -3.8979 -21.6211
lclavicle -5.02925e-014 9.14409e-015
lhumerus 26.3169 27.9024 34.534
lradius 27.0053
lwrist -5.95537
lhand -26.0785 20.6127
lfingers 7.12502
lthumb 0.469951 50.5919
rfemur -39.1381 6.52715 12.6336
rtibia 44.9842
rfoot -16.8056 0.419571
rtoes 4.14304
lfemur -23.9305 6.53806 -16.2319
ltibia 31.2105
lfoot -16.7797 16.0848
ltoes -18.587
5194
root -2.84602 17.4623 -0.0618111 15.7633 -21.3538 2.84992
lowerback 12.4779 -8.81641 -7.50479
upperback 3.86966 -12.4906 8.19027
thorax 0.81479 -6.6869 14.2843
lowerneck -25.122 6.62871 -4.44837
upperneck 21.7687 9.61833 4.60336
head 10.6562 4.59044 3.90746
rclavicle 2.92213e-014 1.74931e-014
rhumerus -53.2886 1.519 -56.5682
rradius 65.7847
rwrist 31.452
rhand -30.6953 8.30152
rfingers 7.12502
rthumb -3.98886 -21.6409
lclavicle 2.92213e-014 1.74931e-014
lhumerus 27.2214 28.8945 35.2446
lradius 26.1572
lwrist -7.35759
lhand -26.1434 21.0664
lfingers 7.12502
lthumb 0.407282 51.0458
rfemur -39.7067 6.76654 12.8923
rtibia 44.9502
rfoot -16.6562 0.423616
rtoes 3.77366
lfemur -24.555 7.10876 -16.0061
ltibia 31.5939
lfoot -16.7613 15.9423
ltoes -18.8467
5195
root -2.84186 17.4556 -0.0723395 15.9912 -21.8518 2.7714
lowerback 12.8078 -8.72981 -7.49592
upperback 3.82068 -12.3822 8.27045
thorax 0.570763 -6.61694 14.446
lowerneck -24.777 6.59717 -5.09979
upperneck 21.6682 9.6584 5.13159
head 10.4858 4.63153 4.17617
rclavicle 1.35174e-014 1.82882e-014
rhumerus -53.8056 1.39331 -56.5957
rradius 65.3295
rwrist 31.2191
rhand -30.8219 8.10516
rfingers 7.12502
rthumb -4.1112 -21.8349
lclavicle 1.35174e-014 1.82882e-014
lhumerus 27.935 29.8941 35.7299
lradius 25.4755
lwrist -8.27517
lhand -26.4 20.5761
lfingers 7.12502
lthumb 0.159364 50.5557
rfemur -40.1331 7.09858 12.8402
rtibia 44.9632
rfoot -16.4769 0.475856
rtoes 3.4334
lfemur -24.8781 7.60054 -16.067
ltibia 31.9094
lfoot -16.8707 15.9277
ltoes -19.0742
5196
root -2.83759 17.4498 -0.0763224 16.1892 -22.4681 2.88446
lowerback 12.9124 -8.6996 -7.62175
upperback 3.9718 -12.3645 8.13762
thorax 0.668647 -6.61981 14.3683
lowerneck -24.9506 6.71298 -5.12316
upperneck 21.644 9.79397 5.28598
head 10.4879 4.71308 4.26028
rclavicle -9.66093e-014 4.37326e-015
rhumerus -54.0771 1.36389 -56.9566
rradius 64.9508
rwrist 30.7216
rhand -30.8713 8.06649
rfingers 7.12502
rthumb -4.15888 -21.8727
lclavicle -9.66093e-014 4.37326e-015
lhumerus 28.5188 30.6021 35.4398
lradius 24.9583
lwrist -8.08075
lhand -27.0105 20.9226
lfingers 7.12502
lthumb -0.43024 50.9019
rfemur -40.6063 7.32749 12.5871
rtibia 45.0183
rfoot -16.2504 0.712668
rtoes 3.44022
lfemur -25.1704 8.01854 -16.3538
ltibia 32.1511
lfoot -17.06 16.0377
ltoes -19.1664
5197
root -2.8312 17.4482 -0.0803338 16.4252 -23.0032 2.84922
lowerback 13.0108 -8.71487 -7.60008
upperback 4.1921 -12.3897 8.01817
thorax 0.828383 -6.64976 14.214
lowerneck -25.219 6.93867 -4.77383
upperneck 21.6279 10.0527 5.04122
head 10.5486 4.82669 4.16988
rclavicle -1.45113e-014 2.74323e-014
rhumerus -54.0886 0.990713 -57.379
rradius 64.4865
rwrist 30.7345
rhand -30.786 8.44753
rfingers 7.12502
rthumb -4.07653 -21.4932
lclavicle -1.45113e-014 2.74323e-014
lhumerus 28.9938 31.3496 34.9672
lradius 24.4969
lwrist -8.20624
lhand -27.0319 21.5923
lfingers 7.12502
lthumb -0.450861 51.5716
rfemur -41.0461 7.45546 12.5332
rtibia 45.0957
rfoot -16.0827 0.889115
rtoes 2.93958
lfemur -25.4701 8.54426 -16.4927
ltibia 32.3489
lfoot -17.1549 16.0384
ltoes -19.2272
5198
root -2.82334 17.4441 -0.0874877 16.6874 -23.3953 2.81886
lowerback 13.1549 -8.75692 -7.65938
upperback 4.34255 -12.463 8.03675
thorax 0.956965 -6.70839 14.282
lowerneck -25.3327 7.11326 -4.72473
upperneck 21.4955 10.3403 4.81589
head 10.5201 4.93636 4.12208
rclavicle -3.97569e-016 2.5842e-015
rhumerus -54.0924 0.907946 -57.6153
rradius 64.1576
rwrist 30.7039
rhand -30.2134 7.9962
rfingers 7.12502
rthumb -3.52349 -21.9544
lclavicle -3.97569e-016 2.5842e-015
lhumerus 29.4057 32.4168 34.9895
lradius 24.075
lwrist -8.6589
lhand -27.0414 21.8395
lfingers 7.12502
lthumb -0.46009 51.8188
rfemur -41.5075 7.50058 12.4964
rtibia 45.1905
rfoot -15.9312 0.978387
rtoes 2.22179
lfemur -25.8295 9.07315 -16.6268
ltibia 32.5099
lfoot -17.1232 15.8716
ltoes -19.2702
5199
root -2.81512 17.439 -0.093534 16.8221 -23.794 2.85647
lowerback 13.3848 -8.75909 -7.82034
upperback 4.46391 -12.4995 8.07586
thorax 1.02644 -6.74742 14.4521
lowerneck -25.4751 7.19671 -4.87778
upperneck 21.4686 10.5404 4.74233
head 10.5194 5.00616 4.15318
rclavicle -3.20043e-014 -4.57205e-014
rhumerus -54.0796 0.945201 -57.6394
rradius 63.7897
rwrist 30.5208
rhand -29.3783 7.7295
rfingers 7.12502
rthumb -2.71706 -22.2329
lclavicle -3.20043e-014 -4.57205e-014
lhumerus 29.861 33.511 35.3823
lradius 23.6503
lwrist -8.98789
lhand -27.5616 21.5087
lfingers 7.12502
lthumb -0.962454 51.4862
rfemur -41.8453 7.52593 12.3996
rtibia 45.2656
rfoot -15.7292 1.28828
rtoes 2.66208
lfemur -26.0637 9.47149 -16.7948
ltibia 32.6833
lfoot -17.1656 15.7872
ltoes -19.3401
5200
root -2.8091 17.4342 -0.0984559 16.9349 -24.3297 3.00032
lowerback 13.5591 -8.67651 -7.96165
upperback 4.54716 -12.415 7.97576
thorax 1.00524 -6.70653 14.4426
lowerneck -25.5787 7.2513 -4.91726
upperneck 21.4339 10.6429 4.71448
head 10.5183 5.04704 4.16719
rclavicle -9.63112e-014 2.92213e-014
rhumerus -54.247 0.93051 -57.7841
rradius 63.4963
rwrist 30.2986
rhand -29.3956 8.68417
rfingers 7.12502
rthumb -2.73375 -21.2781
lclavicle -9.63112e-014 2.92213e-014
lhumerus 30.3949 34.264 35.609
lradius 23.2692
lwrist -9.52336
lhand -27.5184 21.3417
lfingers 7.12502
lthumb -0.920733 51.3194
rfemur -42.2403 7.67483 12.1431
rtibia 45.3424
rfoot -15.5314 1.5479
rtoes 3.32065
lfemur -26.3065 9.84111 -17.0837
ltibia 32.8812
lfoot -17.2986 15.8491
ltoes -19.2529
5201
root -2.80331 17.4331 -0.102418 17.1867 -24.7642 2.94517
lowerback 13.6648 -8.62076 -7.89478
upperback 4.58766 -12.3355 7.96927
thorax 0.951685 -6.66234 14.4139
lowerneck -25.5295 7.31149 -4.9629
upperneck 21.2728 10.7774 4.5702
head 10.4497 5.09196 4.13075
rclavicle -1.80695e-013 2.72335e-014
rhumerus -54.4333 0.954327 -57.8605
rradius 63.1961
rwrist 30.202
rhand -29.9581 9.89793
rfingers 7.12502
rthumb -3.27703 -20.0566
lclavicle -1.80695e-013 2.72335e-014
lhumerus 30.8279 34.8857 35.8362
lradius 22.9113
lwrist -10.1993
lhand -27.2411 21.4002
lfingers 7.12502
lthumb -0.65299 51.3789
rfemur -42.6396 7.87022 12.0698
rtibia 45.3848
rfoot -15.4036 1.69386
rtoes 3.17983
lfemur -26.6215 10.2393 -17.1944
ltibia 33.0932
lfoot -17.397 15.8792
ltoes -19.2717
5202
root -2.79438 17.4273 -0.108346 17.4625 -25.2491 2.81709
lowerback 13.841 -8.52143 -7.73359
upperback 4.56278 -12.1843 7.93641
thorax 0.738834 -6.56208 14.322
lowerneck -25.3908 7.28556 -5.01556
upperneck 21.1728 10.7574 4.55131
head 10.388 5.08049 4.11641
rclavicle 1.41932e-013 -4.19436e-014
rhumerus -54.7953 0.976774 -57.9208
rradius 63.0685
rwrist 30.0793
rhand -30.1316 10.1772
rfingers 7.12502
rthumb -3.44452 -19.7747
lclavicle 1.41932e-013 -4.19436e-014
lhumerus 31.3676 35.4676 36.2165
lradius 22.5242
lwrist -11.1063
lhand -26.8392 21.4836
lfingers 7.12502
lthumb -0.264802 51.4631
rfemur -43.074 8.11256 12.0506
rtibia 45.4163
rfoot -15.2912 1.81506
rtoes 3.28546
lfemur -26.944 10.8783 -17.2932
ltibia 33.3032
lfoot -17.4214 15.7544
ltoes -19.2477
5203
root -2.78781 17.4232 -0.110586 17.673 -25.864 2.67391
lowerback 13.9924 -8.36611 -7.59559
upperback 4.57616 -11.9616 7.82726
thorax 0.546493 -6.42588 14.143
lowerneck -25.2936 7.19576 -5.07276
upperneck 21.1794 10.602 4.72855
head 10.3671 5.02841 4.16059
rclavicle 4.40308e-014 3.54831e-014
rhumerus -55.1488 0.991416 -58.0595
rradius 62.9087
rwrist 30.051
rhand -30.4471 9.1868
rfingers 7.12502
rthumb -3.74919 -20.76
lclavicle 4.40308e-014 3.54831e-014
lhumerus 31.8081 35.8132 36.4201
lradius 22.2198
lwrist -11.8892
lhand -26.378 21.5359
lfingers 7.12502
lthumb 0.1807 51.5156
rfemur -43.418 8.43875 12.0269
rtibia 45.43
rfoot -15.1328 2.04719
rtoes 3.70296
lfemur -27.1416 11.5647 -17.389
ltibia 33.5167
lfoot -17.4856 15.7148
ltoes -19.8381
5204
root -2.78088 17.4215 -0.106028 17.8579 -26.2975 2.61955
lowerback 13.8821 -8.29054 -7.46813
upperback 4.75032 -11.8433 7.68834
thorax 0.69693 -6.3742 13.8667
lowerneck -25.466 7.19073 -4.82094
upperneck 21.1683 10.5182 4.68881
head 10.4163 5.00407 4.10596
rclavicle 1.6191e-013 -1.04511e-013
rhumerus -55.2055 0.729352 -58.1769
rradius 62.671
rwrist 30.0313
rhand -30.6576 9.09873
rfingers 7.12502
rthumb -3.95249 -20.8444
lclavicle 1.6191e-013 -1.04511e-013
lhumerus 32.3492 36.1701 36.5805
lradius 21.9684
lwrist -12.1634
lhand -26.4454 21.6061
lfingers 7.12502
lthumb 0.115535 51.5858
rfemur -43.7044 8.59503 11.9558
rtibia 45.4518
rfoot -15.0169 2.25643
rtoes 3.71578
lfemur -27.3491 12.1358 -17.5447
ltibia 33.7184
lfoot -17.6384 15.535
ltoes -20.0187
